<svg width="50" height="50" viewBox="0 0 50 50" fill="none" xmlns="http://www.w3.org/2000/svg">
<rect width="50" height="50" rx="25" fill="#1BBC9B"/>
<path d="M39.1072 32.3027C39.5467 33.3281 38.8142 34.5 37.74 34.5H28.1209L27.6326 29.7637C27.5838 29.373 27.242 29.0312 26.8513 29.0312H23.4822C23.0916 29.0312 22.7498 29.373 22.701 29.7637L22.2127 34.5H12.5935C11.5193 34.5 10.7869 33.3281 11.2263 32.3027L18.0623 16.6777C18.3064 16.1406 18.8435 15.75 19.4295 15.75H24.1658L24.0681 16.9219C24.0193 17.1172 24.2146 17.3125 24.4588 17.3125H25.8748C26.1189 17.3125 26.3142 17.1172 26.2654 16.9219L26.1678 15.75H30.9041C31.49 15.75 32.0271 16.1406 32.2713 16.6777L39.1072 32.3027ZM23.824 19.2656L23.5799 21.3652C23.5799 21.707 23.824 22 24.1658 22H26.1678C26.5095 22 26.7537 21.707 26.7537 21.3652L26.5095 19.2656C26.5095 19.0703 26.3142 18.875 26.1189 18.875H24.2146V18.9238C24.0193 18.9238 23.824 19.0703 23.824 19.2656ZM26.5095 27.4688C26.9978 27.4688 27.3396 27.0781 27.2908 26.6387L27.0467 24.2949C26.9978 23.9043 26.656 23.5625 26.2654 23.5625H24.0681C23.6775 23.5625 23.3357 23.9043 23.2869 24.2949L23.0428 26.6387C22.9939 27.0781 23.3357 27.4688 23.824 27.4688H26.5095Z" fill="white"/>
</svg>
