<svg width="50" height="50" viewBox="0 0 50 50" fill="none" xmlns="http://www.w3.org/2000/svg">
<rect width="50" height="50" rx="25" fill="#1BBC9B"/>
<path d="M21.6359 16.1406C21.6359 14.2363 23.1984 12.625 25.1516 12.625C27.0559 12.625 28.6672 14.2363 28.6672 16.1406C28.6672 18.0938 27.0559 19.6562 25.1516 19.6562C23.1984 19.6562 21.6359 18.0938 21.6359 16.1406ZM34.0383 16.2383C34.673 16.8242 34.673 17.8496 34.0383 18.4355L29.4484 23.0742V36.0625C29.4484 36.9414 28.716 37.625 27.8859 37.625H27.1047C26.2258 37.625 25.5422 36.9414 25.5422 36.0625V30.5938H24.7609V36.0625C24.7609 36.9414 24.0285 37.625 23.1984 37.625H22.4172C21.5383 37.625 20.8547 36.9414 20.8547 36.0625V23.0742L16.216 18.4355C15.5813 17.8496 15.5813 16.8242 16.216 16.2383C16.802 15.6035 17.8273 15.6035 18.4133 16.2383L22.6613 20.4375H27.593L31.841 16.2383C32.427 15.6035 33.4523 15.6035 34.0383 16.2383Z" fill="white"/>
</svg>
